<svg width="29" height="29" viewBox="0 0 29 29" fill="none" xmlns="http://www.w3.org/2000/svg">
<g clip-path="url(#clip0_2545_4145)">
<path d="M27.2856 11.8904L15.7196 11.8898C15.2089 11.8898 14.7949 12.3038 14.7949 12.8145V16.5093C14.7949 17.0199 15.2089 17.434 15.7196 17.434H22.2328C21.5196 19.2849 20.1885 20.835 18.4901 21.8199L21.2674 26.6275C25.7224 24.051 28.3562 19.5302 28.3562 14.4695C28.3562 13.7489 28.3031 13.2338 28.1969 12.6538C28.1162 12.2132 27.7336 11.8904 27.2856 11.8904Z" fill="#167EE6"/>
<path d="M14.1783 22.9854C10.9908 22.9854 8.20822 21.2439 6.71374 18.6668L1.90625 21.4378C4.35275 25.6779 8.93582 28.5333 14.1783 28.5333C16.7501 28.5333 19.1767 27.8408 21.2672 26.6341V26.6275L18.4899 21.8198C17.2196 22.5566 15.7495 22.9854 14.1783 22.9854Z" fill="#12B347"/>
<path d="M21.2666 26.6341V26.6275L18.4894 21.8198C17.219 22.5566 15.7491 22.9854 14.1777 22.9854V28.5333C16.7495 28.5333 19.1763 27.8408 21.2666 26.6341Z" fill="#0F993E"/>
<path d="M5.54783 14.3555C5.54783 12.7844 5.9766 11.3145 6.71323 10.0442L1.90575 7.27319C0.692385 9.35705 0 11.7771 0 14.3555C0 16.9339 0.692385 19.3539 1.90575 21.4378L6.71323 18.6668C5.9766 17.3965 5.54783 15.9266 5.54783 14.3555Z" fill="#FFD500"/>
<path d="M14.1783 5.72557C16.2568 5.72557 18.1661 6.46414 19.6573 7.69268C20.0252 7.99573 20.5599 7.97385 20.8969 7.63685L23.5148 5.01895C23.8972 4.63659 23.87 4.01072 23.4615 3.65639C20.963 1.48879 17.712 0.177734 14.1783 0.177734C8.93582 0.177734 4.35275 3.03306 1.90625 7.27321L6.71374 10.0442C8.20822 7.46711 10.9908 5.72557 14.1783 5.72557Z" fill="#FF4B26"/>
<path d="M19.6568 7.69268C20.0247 7.99573 20.5595 7.97385 20.8964 7.63685L23.5143 5.01895C23.8966 4.63659 23.8694 4.01072 23.461 3.65639C20.9624 1.48874 17.7115 0.177734 14.1777 0.177734V5.72557C16.2562 5.72557 18.1655 6.46414 19.6568 7.69268Z" fill="#D93F21"/>
</g>
<defs>
<clipPath id="clip0_2545_4145">
<rect width="28.3556" height="28.3556" fill="white" transform="translate(0 0.177734)"/>
</clipPath>
</defs>
</svg>
