<svg width="35" height="70" viewBox="0 0 35 70" fill="none" xmlns="http://www.w3.org/2000/svg">
<path d="M32.9388 25.7361L31.7445 25.3705V21.5686C31.7445 20.9106 31.2138 20.3256 30.6167 20.3256H25.9724C24.5791 17.8398 23.5839 16.1581 21.6598 16.1581H13.3001C11.376 16.1581 10.3808 17.7667 8.98756 20.3256H4.40962C3.74615 20.3256 3.28172 20.9106 3.28172 21.5686V25.3705L2.02113 25.7361C0.561501 26.1748 -0.30101 27.7833 0.0970719 29.3918C0.428806 30.9272 1.88844 31.8777 3.28172 31.5852V45.2575C3.28172 45.9156 3.8125 46.5005 4.40962 46.5005H10.6462L8.45678 65.6564C8.25774 67.5573 9.45199 69.239 11.177 69.5314H11.5751C13.1674 69.5314 14.4944 68.2885 14.6934 66.5337L16.9492 46.4274H18.0771L20.3329 66.4606C20.5319 68.2154 21.8589 69.4583 23.4512 69.4583H23.8493C25.5743 69.239 26.7685 67.4842 26.5695 65.5833L24.38 46.4274H30.6167C31.2801 46.4274 31.7445 45.8425 31.7445 45.1844V31.5121C31.9436 31.5852 32.0763 31.5852 32.2753 31.5852C33.4696 31.5852 34.5975 30.7078 34.9292 29.3187C35.2609 27.7833 34.3984 26.1017 32.9388 25.7361ZM29.4224 43.9415H5.53752V22.8115H29.4224V43.9415Z" fill="white"/>
<path d="M17.4795 14.3304C21.0705 14.3304 23.9815 11.1224 23.9815 7.16518C23.9815 3.20796 21.0705 0 17.4795 0C13.8886 0 10.9775 3.20796 10.9775 7.16518C10.9775 11.1224 13.8886 14.3304 17.4795 14.3304Z" fill="white"/>
<path d="M15.0912 32.2428C15.2903 32.1697 15.423 31.9504 15.2903 31.731C15.1576 31.3655 15.0912 30.9999 15.0912 30.6343C15.0912 30.3419 15.2239 29.9763 15.3566 29.6107C15.423 29.3914 15.4893 29.2452 15.622 29.0258C15.6884 28.8065 15.7547 28.514 15.8211 28.2216C15.8211 27.9291 15.8211 27.6367 15.6884 27.3442C15.622 27.198 15.622 27.0517 15.5557 26.9786C15.4893 26.8324 15.423 26.7593 15.2903 26.6131C15.2239 26.5399 15.0912 26.4668 14.9585 26.4668C14.7595 26.5399 14.6268 26.7593 14.6932 26.9055V27.0517C14.6932 27.1249 14.7595 27.198 14.7595 27.2711C14.7595 27.3442 14.8259 27.4173 14.8259 27.4904V28.0022C14.8259 28.1485 14.7595 28.2947 14.6932 28.4409L14.4278 29.0258C14.3614 29.2452 14.2951 29.4645 14.2287 29.757C14.1624 30.0494 14.1624 30.2688 14.1624 30.5612C14.2287 31.1461 14.4278 31.6579 14.7595 32.0235C14.7595 32.2428 14.9585 32.316 15.0912 32.2428V32.2428ZM17.6124 32.0235C17.8115 31.9504 17.9442 31.731 17.8115 31.5117C17.6788 31.1461 17.6124 30.7806 17.6124 30.415C17.6124 30.1225 17.7451 29.757 17.8778 29.3914C17.9442 29.1721 18.0105 29.0258 18.1432 28.8065C18.2095 28.5871 18.2759 28.2947 18.3422 28.0022C18.3422 27.7098 18.3422 27.4173 18.2095 27.1249C18.1432 26.9055 18.1432 26.8324 18.0769 26.6862C18.0105 26.5399 17.9442 26.4668 17.8115 26.3206C17.7451 26.2475 17.6124 26.1744 17.4797 26.1744C17.2807 26.2475 17.148 26.4668 17.2143 26.6131V26.7593C17.2143 26.8324 17.2807 26.9055 17.2807 26.9786C17.2807 27.0517 17.347 27.1249 17.347 27.198V27.7098C17.347 27.856 17.2807 28.0022 17.2143 28.1485L16.949 28.8796C16.8826 29.0989 16.8163 29.3183 16.7499 29.6107C16.6836 29.9032 16.6836 30.1225 16.6836 30.415C16.7499 30.9999 16.949 31.5117 17.2807 31.8773C17.2807 32.0235 17.4797 32.0966 17.6124 32.0235V32.0235ZM20.1336 32.2428C20.3326 32.1697 20.4653 31.9504 20.3326 31.731C20.2 31.3655 20.1336 30.9999 20.1336 30.6343C20.1336 30.3419 20.2663 29.9763 20.399 29.6107C20.4653 29.3914 20.5317 29.2452 20.6644 29.0258C20.7307 28.8065 20.7971 28.514 20.8634 28.2216C20.8634 27.9291 20.8634 27.6367 20.7307 27.3442C20.6644 27.198 20.6644 27.0517 20.598 26.9786C20.5317 26.8324 20.4653 26.7593 20.3326 26.6131C20.2663 26.5399 20.1336 26.4668 20.0009 26.4668C19.8019 26.5399 19.6692 26.7593 19.7355 26.9055V27.0517C19.7355 27.1249 19.8019 27.198 19.8019 27.2711C19.8019 27.3442 19.8682 27.4173 19.8682 27.4904V28.0022C19.8682 28.1485 19.8019 28.2947 19.7355 28.4409L19.4701 29.0989C19.4038 29.3183 19.3374 29.5376 19.2711 29.8301C19.2048 30.1225 19.2047 30.3419 19.2047 30.6343C19.2711 31.2193 19.4701 31.731 19.8019 32.0966C19.8019 32.2428 20.0009 32.316 20.1336 32.2428V32.2428ZM11.6412 36.3372C11.9066 38.75 13.2999 40.5779 17.4797 40.5779C21.5932 40.5779 22.9865 38.75 23.3183 36.3372C23.65 36.0448 23.9154 35.7523 23.9154 35.3868C23.9154 33.3396 18.2095 33.3396 17.5461 33.3396C16.8826 33.3396 11.1768 33.4127 11.1768 35.3868C11.1104 35.7523 11.3095 36.0448 11.6412 36.3372V36.3372ZM17.4797 34.4363C20.5317 34.4363 22.3231 35.0212 22.7875 35.3868C22.3894 35.7523 20.598 36.3372 17.4797 36.3372C14.3614 36.3372 12.6364 35.7523 12.172 35.3868C12.6364 34.9481 14.4278 34.4363 17.4797 34.4363Z" fill="white"/>
</svg>
