<svg width="227" height="59" viewBox="0 0 227 59" fill="none" xmlns="http://www.w3.org/2000/svg">
<path d="M0 46.415H9.77849V42.3246H6.97875V27.5562H10.6637V31.0438H12.9282V19.5477H10.6637V23.0353H6.97875V8.86966H12.887V15.6726H16.4279V4.34872H0V8.4391H2.01746V42.3246H0V46.415ZM24.7653 42.6691C23.1184 42.6691 22.192 40.5593 22.192 36.3398V24.8437C22.192 20.6241 23.1184 18.5143 24.7653 18.5143C26.4122 18.5143 27.3386 20.6241 27.3386 24.8437V36.3398C27.3386 40.5593 26.4122 42.6691 24.7653 42.6691ZM24.7653 47.147C29.2531 47.147 32.2587 41.1191 32.2587 30.5702C32.2587 20.0644 29.2531 14.0365 24.7653 14.0365C20.2775 14.0365 17.2719 20.0644 17.2719 30.6133C17.2719 41.1191 20.2775 47.147 24.7653 47.147ZM42.2225 42.6691C40.5962 42.6691 39.6698 40.5593 39.6698 36.3398V24.8437C39.6698 20.6241 40.5962 18.5143 42.2225 18.5143C43.8694 18.5143 44.7958 20.6241 44.7958 24.8437V36.3398C44.7958 40.5593 43.8694 42.6691 42.2225 42.6691ZM42.2225 47.147C46.7309 47.147 49.7159 41.1191 49.7159 30.5702C49.7159 20.0644 46.7309 14.0365 42.2225 14.0365C37.7347 14.0365 34.7291 20.0644 34.7291 30.6133C34.7291 41.1191 37.7347 47.147 42.2225 47.147ZM58.4239 47.147C60.5031 47.147 61.9441 44.5636 62.4588 41.7219H62.6441V47.147L69.067 44.4344V40.8177L67.2966 40.0426V0L60.9148 2.66951V6.28627L62.6441 7.06128V19.3324H62.4588C61.9441 16.5768 60.6266 14.0365 58.4239 14.0365C54.6566 14.0365 52.3098 20.7533 52.3098 30.6133C52.3098 40.4302 54.6566 47.147 58.4239 47.147ZM60.009 41.4205C58.4857 41.4205 57.2505 39.1385 57.2505 34.8328V26.2645C57.2505 22.0019 58.4857 19.7199 60.009 19.7199C61.5324 19.7199 62.6441 21.9589 62.6441 25.1881V35.9092C62.6441 39.1815 61.5324 41.4205 60.009 41.4205ZM85.0831 42.6691C83.4362 42.6691 82.5304 40.5593 82.5304 36.3398V24.8437C82.5304 20.6241 83.4362 18.5143 85.0831 18.5143C86.73 18.5143 87.6564 20.6241 87.6564 24.8437V36.3398C87.6564 40.5593 86.73 42.6691 85.0831 42.6691ZM85.0831 47.147C89.5915 47.147 92.5765 41.1191 92.5765 30.5702C92.5765 20.0644 89.5915 14.0365 85.0831 14.0365C80.5953 14.0365 77.5897 20.0644 77.5897 30.6133C77.5897 41.1191 80.5953 47.147 85.0831 47.147ZM94.7381 46.415H102.726V42.3246H101.14V24.9728C101.14 21.7005 102.499 20.3658 103.817 20.3658C105.443 20.3658 106.061 22.0019 106.061 26.0492V42.3246H104.475V46.415H112.463V42.3246H110.734V25.7479C110.734 17.9546 109.354 14.0365 105.608 14.0365C103.096 14.0365 101.779 16.8351 101.223 20.0644H101.058V14.0365L94.7381 16.706V20.3227L96.4674 21.0977V42.3246H94.7381V46.415ZM128.603 47.147C132.411 47.147 134.264 41.9371 134.943 37.9329L133.255 35.8662C132.699 38.7079 131.423 41.1191 129.302 41.1191C127.203 41.1191 125.947 38.4065 125.947 33.2828V26.8243C125.947 21.0977 127.306 17.9546 129.673 17.9546C130.517 17.9546 130.97 18.2129 131.341 18.4282V18.8157C130.702 19.4616 130.085 20.8394 130.085 22.9492C130.085 25.4895 130.908 27.2548 132.39 27.2548C133.831 27.2548 134.737 25.3173 134.737 22.1742C134.737 17.524 132.699 14.0365 129.097 14.0365C124.547 14.0365 121.027 19.8922 121.027 30.5702C121.027 39.9135 123.641 47.147 128.603 47.147ZM144.166 42.6691C142.519 42.6691 141.613 40.5593 141.613 36.3398V24.8437C141.613 20.6241 142.519 18.5143 144.166 18.5143C145.813 18.5143 146.739 20.6241 146.739 24.8437V36.3398C146.739 40.5593 145.813 42.6691 144.166 42.6691ZM144.166 47.147C148.674 47.147 151.659 41.1191 151.659 30.5702C151.659 20.0644 148.674 14.0365 144.166 14.0365C139.678 14.0365 136.672 20.0644 136.672 30.6133C136.672 41.1191 139.678 47.147 144.166 47.147ZM160.244 47.147C162.755 47.147 164.093 44.3483 164.629 41.1191H164.814V47.147L171.113 44.4775V40.8607L169.384 40.0857V14.0365L162.982 16.706V20.3227L164.711 21.0977V36.2106C164.711 39.4829 163.373 40.8177 162.035 40.8177C160.429 40.8177 159.791 39.1815 159.791 35.1342V14.0365L153.388 16.706V20.3227L155.118 21.0977V35.4356C155.118 43.2288 156.497 47.147 160.244 47.147ZM172.678 58.4709H181.386V54.3805H179.08V41.851H179.245C179.759 44.6066 181.098 47.147 183.28 47.147C187.047 47.147 189.394 40.4302 189.394 30.6133C189.394 20.7533 187.047 14.0365 183.28 14.0365C181.201 14.0365 179.759 16.6199 179.245 19.4616H179.08V14.0365L172.678 16.749V20.3658L174.407 21.1408V54.3805H172.678V58.4709ZM181.489 41.4205C179.965 41.4205 178.874 39.1815 178.874 35.9092V25.1881C178.874 21.9589 179.965 19.7199 181.489 19.7199C183.012 19.7199 184.268 22.0019 184.268 26.2645V34.8328C184.268 39.1385 183.012 41.4205 181.489 41.4205ZM199.337 42.6691C197.69 42.6691 196.764 40.5593 196.764 36.3398V24.8437C196.764 20.6241 197.69 18.5143 199.337 18.5143C200.984 18.5143 201.89 20.6241 201.89 24.8437V36.3398C201.89 40.5593 200.984 42.6691 199.337 42.6691ZM199.337 47.147C203.825 47.147 206.83 41.1191 206.83 30.5702C206.83 20.0644 203.825 14.0365 199.337 14.0365C194.829 14.0365 191.844 20.0644 191.844 30.6133C191.844 41.1191 194.829 47.147 199.337 47.147ZM208.992 46.415H216.98V42.3246H215.394V24.9728C215.394 21.7005 216.732 20.3658 218.071 20.3658C219.676 20.3658 220.314 22.0019 220.314 26.0492V42.3246H218.729V46.415H226.717V42.3246H224.988V25.7479C224.988 17.9546 223.608 14.0365 219.862 14.0365C217.35 14.0365 216.012 16.8351 215.477 20.0644H215.291V14.0365L208.992 16.706V20.3227L210.721 21.0977V42.3246H208.992V46.415Z" fill="white"/>
</svg>
