<svg width="39" height="40" viewBox="0 0 39 40" fill="none" xmlns="http://www.w3.org/2000/svg">
<path fill-rule="evenodd" clip-rule="evenodd" d="M19.6907 21.0686C20.1844 21.0686 20.6419 20.8407 21.1716 20.3128L31.646 9.98441C31.2006 9.55256 30.3698 9.34863 29.1779 9.34863H9.79423C8.78291 9.34863 8.07258 9.54057 7.67527 9.93643L18.2099 20.3128C18.7276 20.8287 19.1851 21.0686 19.6907 21.0686ZM6.67599 28.0862L15.188 19.7011L6.65191 11.316C6.47132 11.6518 6.375 12.2276 6.375 13.0554V26.2988C6.375 27.1505 6.47132 27.7503 6.67599 28.0862ZM32.6694 28.0742C32.862 27.7263 32.9583 27.1385 32.9583 26.2988V13.0554C32.9583 12.2516 32.862 11.6758 32.6935 11.3519L24.1815 19.7011L32.6694 28.0742ZM29.5391 30.0175C30.5504 30.0175 31.2487 29.8256 31.646 29.4417L22.9655 20.8766L22.1709 21.6804C21.3402 22.4721 20.5576 22.832 19.6907 22.832C18.8119 22.832 18.0293 22.4721 17.2106 21.6804L16.4039 20.8766L7.74751 29.4297C8.20501 29.8256 8.99962 30.0175 10.1554 30.0175H29.5391Z" fill="#F5F6F6"/>
</svg>
