<svg width="41" height="71" viewBox="0 0 41 71" fill="none" xmlns="http://www.w3.org/2000/svg">
<path d="M37.9437 26.1423L36.5831 25.7752V21.957C36.5831 21.2962 35.9784 20.7088 35.2981 20.7088H30.0069C28.4196 18.2122 27.2858 16.5234 25.0937 16.5234H15.5696C13.3776 16.5234 12.2437 18.1388 10.6564 20.7088H5.44081C4.68493 20.7088 4.15581 21.2962 4.15581 21.957V25.7752L2.71964 26.1423C1.0567 26.5829 0.0740562 28.1983 0.527585 29.8137C0.905525 31.3556 2.56846 32.3102 4.15581 32.0165V45.7472C4.15581 46.4081 4.76052 46.9955 5.44081 46.9955H12.5461L10.0517 66.2333C9.82492 68.1424 11.1855 69.8312 13.1508 70.1249H13.6043C15.4184 70.1249 16.9302 68.8766 17.157 67.1144L19.727 46.9221H21.012L23.5819 67.041C23.8087 68.8032 25.3205 70.0514 27.1346 70.0514H27.5881C29.5534 69.8312 30.914 68.0689 30.6872 66.1598L28.1928 46.9221H35.2981C36.054 46.9221 36.5831 46.3346 36.5831 45.6738V31.943C36.8099 32.0165 36.961 32.0165 37.1878 32.0165C38.5484 32.0165 39.8334 31.1353 40.2113 29.7402C40.5893 28.1983 39.6066 26.5095 37.9437 26.1423ZM33.9375 44.4256H6.72581V23.2053H33.9375V44.4256Z" fill="white"/>
<path d="M20.3305 14.6875C24.4216 14.6875 27.7381 11.4658 27.7381 7.49171C27.7381 3.51757 24.4216 0.295898 20.3305 0.295898C16.2394 0.295898 12.9229 3.51757 12.9229 7.49171C12.9229 11.4658 16.2394 14.6875 20.3305 14.6875Z" fill="white"/>
<path d="M17.6089 32.6764C17.8357 32.603 17.9869 32.3827 17.8357 32.1625C17.6845 31.7953 17.6089 31.4282 17.6089 31.0611C17.6089 30.7674 17.7601 30.4002 17.9113 30.0331C17.9869 29.8128 18.0625 29.666 18.2137 29.4457C18.2892 29.2254 18.3648 28.9317 18.4404 28.638C18.4404 28.3443 18.4404 28.0506 18.2892 27.7569C18.2136 27.61 18.2136 27.4632 18.1381 27.3897C18.0625 27.2429 17.9869 27.1694 17.8357 27.0226C17.7601 26.9492 17.6089 26.8757 17.4578 26.8757C17.231 26.9492 17.0798 27.1694 17.1554 27.3163V27.4632C17.1554 27.5366 17.231 27.61 17.231 27.6834C17.231 27.7569 17.3066 27.8303 17.3066 27.9037V28.4177C17.3066 28.5645 17.231 28.7114 17.1554 28.8583L16.8531 29.4457C16.7775 29.666 16.7019 29.8862 16.6263 30.1799C16.5507 30.4736 16.5507 30.6939 16.5507 30.9876C16.6263 31.575 16.8531 32.089 17.231 32.4562C17.231 32.6764 17.4578 32.7499 17.6089 32.6764ZM20.4813 32.4562C20.7081 32.3827 20.8592 32.1625 20.7081 31.9422C20.5569 31.575 20.4813 31.2079 20.4813 30.8408C20.4813 30.5471 20.6325 30.1799 20.7836 29.8128C20.8592 29.5925 20.9348 29.4457 21.086 29.2254C21.1616 29.0051 21.2372 28.7114 21.3128 28.4177C21.3128 28.124 21.3128 27.8303 21.1616 27.5366C21.086 27.3163 21.086 27.2429 21.0104 27.096C20.9348 26.9492 20.8592 26.8757 20.7081 26.7289C20.6325 26.6555 20.4813 26.582 20.3301 26.582C20.1034 26.6555 19.9522 26.8757 20.0278 27.0226V27.1694C20.0278 27.2429 20.1034 27.3163 20.1034 27.3897C20.1034 27.4632 20.1789 27.5366 20.1789 27.61V28.124C20.1789 28.2708 20.1034 28.4177 20.0278 28.5646L19.7254 29.2988C19.6498 29.5191 19.5742 29.7394 19.4986 30.0331C19.4231 30.3268 19.4231 30.5471 19.4231 30.8408C19.4986 31.4282 19.7254 31.9422 20.1034 32.3093C20.1034 32.4562 20.3301 32.5296 20.4813 32.4562ZM23.3536 32.6764C23.5804 32.603 23.7316 32.3827 23.5804 32.1625C23.4292 31.7953 23.3536 31.4282 23.3536 31.0611C23.3536 30.7674 23.5048 30.4002 23.656 30.0331C23.7316 29.8128 23.8072 29.666 23.9583 29.4457C24.0339 29.2254 24.1095 28.9317 24.1851 28.638C24.1851 28.3443 24.1851 28.0506 24.0339 27.7569C23.9583 27.61 23.9583 27.4632 23.8828 27.3897C23.8072 27.2429 23.7316 27.1694 23.5804 27.0226C23.5048 26.9492 23.3536 26.8757 23.2025 26.8757C22.9757 26.9492 22.8245 27.1694 22.9001 27.3163V27.4632C22.9001 27.5366 22.9757 27.61 22.9757 27.6834C22.9757 27.7569 23.0513 27.8303 23.0513 27.9037V28.4177C23.0513 28.5645 22.9757 28.7114 22.9001 28.8583L22.5978 29.5191C22.5222 29.7394 22.4466 29.9597 22.371 30.2534C22.2954 30.5471 22.2954 30.7674 22.2954 31.0611C22.371 31.6485 22.5978 32.1625 22.9757 32.5296C22.9757 32.6764 23.2025 32.7499 23.3536 32.6764ZM13.6784 36.7883C13.9807 39.2114 15.5681 41.0471 20.3301 41.0471C25.0166 41.0471 26.6039 39.2114 26.9819 36.7883C27.3598 36.4946 27.6622 36.2009 27.6622 35.8338C27.6622 33.7778 21.1616 33.7778 20.4057 33.7778C19.6498 33.7778 13.1492 33.8513 13.1492 35.8338C13.0737 36.2009 13.3004 36.4946 13.6784 36.7883ZM20.3301 34.8792C23.8072 34.8792 25.848 35.4667 26.3772 35.8338C25.9236 36.2009 23.8828 36.7883 20.3301 36.7883C16.7775 36.7883 14.8122 36.2009 14.2831 35.8338C14.8122 35.3932 16.8531 34.8792 20.3301 34.8792Z" fill="white"/>
</svg>
