<svg width="39" height="40" viewBox="0 0 39 40" fill="none" xmlns="http://www.w3.org/2000/svg">
<path fill-rule="evenodd" clip-rule="evenodd" d="M10 16.6827C10 11.292 14.3674 6.94043 19.7778 6.94043C25.1881 6.94043 29.5556 11.292 29.5556 16.6827C29.5556 23.1776 19.7778 32.9199 19.7778 32.9199C19.7778 32.9199 10 23.1776 10 16.6827ZM26.2963 16.6827C26.2963 13.1105 23.3956 10.1879 19.7778 10.1879C16.1926 10.1879 13.2593 13.1105 13.2593 16.6827C13.2593 20.2874 16.1926 23.1776 19.7778 23.1776C23.3956 23.1776 26.2963 20.2874 26.2963 16.6827Z" fill="white"/>
<mask id="mask0_2321_4727" style="mask-type:luminance" maskUnits="userSpaceOnUse" x="10" y="6" width="20" height="27">
<path fill-rule="evenodd" clip-rule="evenodd" d="M10 16.6827C10 11.292 14.3674 6.94043 19.7778 6.94043C25.1881 6.94043 29.5556 11.292 29.5556 16.6827C29.5556 23.1776 19.7778 32.9199 19.7778 32.9199C19.7778 32.9199 10 23.1776 10 16.6827ZM26.2963 16.6827C26.2963 13.1105 23.3956 10.1879 19.7778 10.1879C16.1926 10.1879 13.2593 13.1105 13.2593 16.6827C13.2593 20.2874 16.1926 23.1776 19.7778 23.1776C23.3956 23.1776 26.2963 20.2874 26.2963 16.6827Z" fill="white"/>
</mask>
<g mask="url(#mask0_2321_4727)">
</g>
</svg>
