<svg width="39" height="40" viewBox="0 0 39 40" fill="none" xmlns="http://www.w3.org/2000/svg">
<path fill-rule="evenodd" clip-rule="evenodd" d="M26.9173 33.4273C28.764 33.4273 30.3816 32.7854 31.6843 31.3591C32.443 30.5176 32.9154 29.5334 32.9154 28.5635C32.9154 27.8503 32.6434 27.1657 31.9706 26.6808L27.5758 23.5714C26.903 23.1149 26.3447 22.8867 25.8294 22.8867C25.1852 22.8867 24.5983 23.2576 23.9398 23.8994L22.9234 24.8978C22.7659 25.0547 22.5655 25.1261 22.3794 25.1261C22.1647 25.1261 21.9499 25.0405 21.8068 24.9692C20.9192 24.4985 19.4018 23.2005 17.9846 21.8027C16.5817 20.4049 15.2791 18.893 14.821 18.0087C14.7494 17.8518 14.6635 17.6521 14.6635 17.4382C14.6635 17.2528 14.7208 17.0673 14.8782 16.9104L15.8946 15.8692C16.5245 15.2131 16.911 14.6426 16.911 13.9865C16.911 13.473 16.6676 12.9167 16.1952 12.2464L13.1175 7.92459C12.6164 7.23996 11.915 6.94043 11.142 6.94043C10.1972 6.94043 9.22373 7.36833 8.37913 8.18133C6.99055 9.50781 6.375 11.1481 6.375 12.9595C6.375 17.0531 9.51003 22.0167 13.6471 26.1245C17.7842 30.2466 22.8089 33.4273 26.9173 33.4273Z" fill="#F5F6F6"/>
</svg>
